# xmcd
#
# Track frame offsets:
#	150
#	10599
#	23438
#	35064
#	47980
#	59982
#	73011
#	86224
#	99637
#	111083
#	123790
#	136298
#	147957
#	160475
#	174068
#	186729
#	197189
#	208098
#	219880
#	232993
#	246604
#	259142
#
# Disc length: 3605 seconds
#
# Revision: 0
# Processed by: cddbd v1.5.2PL0 Copyright (c) Steve Scherf et al.
# Submitted via: EasyCDDAExtractor 2010.6.0.0
#
DISCID=4c0e1316
DTITLE=Various Artist - Song Of The Hills
DYEAR=1900
DGENRE=
TTITLE0=Rex Allen - Hootin' And Howlin'
TTITLE1=Rex Allen - Afraid
TTITLE2=Rex Allen - As Long As The River Flows On
TTITLE3=Rex Allen - Cottage In The Cloud
TTITLE4=Rex Allen - Jambalaya
TTITLE5=Rex Allen - Song Of The Hills
TTITLE6=Rex Allen - No One Will Ever Know
TTITLE7=Rex Allen - Miranda Doaks
TTITLE8=Rex Allen - Ragtime Melody
TTITLE9=Rex Allen - Tennessee Tears
TTITLE10=Rex Allen - Who Shot The Hole In My Sombrero
TTITLE11=Rex Allen - Chime Bells
TTITLE12=Rex Allen and Patti Page - Broken Down Merry Go Round
TTITLE13=Rex Allen - Loaded Pistol
TTITLE14=Rex Allen - Always You
TTITLE15=Rex Allen - Till The Well Goes Dry
TTITLE16=Rex Allen - Tuck Me To Sleep In My Old Tucky Home
TTITLE17=Rex Allen - Two Faced Clock
TTITLE18=Rex Allen - Waltz Of The Roses
TTITLE19=Rex Allen - Rack Up The Balls Boy
TTITLE20=Rex Allen and Patti Page - Further Along
TTITLE21=Rex Allen - Tag Along
EXTD=
EXTT0=
EXTT1=
EXTT2=
EXTT3=
EXTT4=
EXTT5=
EXTT6=
EXTT7=
EXTT8=
EXTT9=
EXTT10=
EXTT11=
EXTT12=
EXTT13=
EXTT14=
EXTT15=
EXTT16=
EXTT17=
EXTT18=
EXTT19=
EXTT20=
EXTT21=
PLAYORDER=
